<?xml version="1.0" encoding="UTF-8"?>
<svg xmlns="http://www.w3.org/2000/svg" xmlns:xlink="http://www.w3.org/1999/xlink" width="336.8pt" height="187.4pt" viewBox="0 0 336.8 187.4" version="1.1">
<g id="surface1">
<path style=" stroke:none;fill-rule:evenodd;fill:rgb(255,255,255);fill-opacity:1;" d="M 222.210938 89.605469 C 220.601563 89.058594 219.007813 88.554688 217.433594 88.097656 C 223.011719 78.492188 228.59375 68.886719 234.171875 59.28125 C 238.046875 54.121094 244.449219 55.476563 245.796875 61.554688 C 243.019531 85.714844 272.332031 93.503906 283.707031 73.179688 C 295.835938 50.519531 290.78125 33.253906 268.542969 21.378906 C 241.996094 10.300781 219.003906 13.433594 196.519531 18.59375 C 186.496094 20.867188 177.144531 24.492188 168.46875 29.464844 C 169.5625 29.546875 170.65625 29.628906 171.753906 29.714844 C 211.472656 14.210938 259.402344 13.367188 277.640625 36.285156 C 292.261719 73.089844 260.742188 88.859375 251.863281 62.820313 C 251.566406 50.203125 236.152344 44.011719 227.855469 53.972656 C 221.496094 64.644531 215.140625 75.3125 208.78125 85.984375 C 192.742188 82.839844 179.332031 84.71875 172.382813 91.53125 C 161.269531 103.671875 175.964844 128.835938 196.132813 110.492188 C 196.09375 110.605469 196.050781 110.722656 196.011719 110.839844 C 199.296875 116.984375 204.269531 118.417969 210.921875 115.132813 C 213.660156 113.371094 216.398438 111.609375 219.136719 109.851563 C 219.957031 111.992188 221.355469 114.121094 223.398438 116.136719 C 228.046875 119.722656 236.316406 119.339844 251.035156 111.867188 C 251.070313 111.867188 251.109375 111.867188 251.148438 111.867188 C 249.851563 113.777344 248.554688 115.6875 247.257813 117.601563 C 250.425781 117.722656 253.589844 117.84375 256.753906 117.964844 C 260.246094 112.316406 263.734375 106.664063 267.226563 101.011719 C 272.097656 98.980469 276.964844 96.949219 281.835938 94.914063 C 285.855469 93.183594 286.582031 96.4375 284.027344 100.160156 C 281.144531 103.410156 278.265625 106.664063 275.382813 109.917969 C 269.261719 116.3125 275.363281 122.285156 282.6875 119.308594 C 288.621094 116.964844 295.15625 112.6875 300.5 112.242188 C 300.496094 112.28125 300.496094 112.324219 300.492188 112.367188 C 312.269531 108.675781 323.347656 124.542969 308.578125 136.617188 C 289.675781 150.171875 269.214844 143.421875 248.703125 136.019531 C 205 119.445313 177.121094 115.839844 156.421875 114.800781 C 159.292969 108.101563 162.160156 101.402344 165.027344 94.707031 C 174.503906 86.945313 183.984375 79.183594 193.460938 71.425781 C 194.257813 75.964844 198.292969 79.4375 203.121094 79.4375 C 208.519531 79.4375 212.925781 75.097656 212.925781 69.78125 C 212.925781 64.464844 208.519531 60.128906 203.121094 60.128906 C 201.5 60.128906 199.96875 60.519531 198.617188 61.214844 C 198.644531 61.148438 198.675781 61.089844 198.707031 61.023438 C 198.527344 61.171875 198.347656 61.3125 198.167969 61.453125 C 197.304688 61.960938 196.527344 62.585938 195.855469 63.308594 C 186.433594 69.339844 177.832031 77.023438 169.21875 84.675781 C 171.363281 80.089844 171.3125 78.488281 169.066406 79.886719 C 164.277344 82.335938 159.488281 84.777344 154.695313 87.21875 C 153.25 88.667969 153.398438 89.316406 155.144531 89.167969 C 156.84375 88.917969 157.339844 89.464844 156.644531 90.8125 C 153.292969 98.761719 149.941406 106.710938 146.589844 114.65625 C 134.464844 114.9375 125.257813 116.96875 116.976563 119.554688 C 81.125 145.175781 133.367188 187.339844 177.148438 150.390625 C 128.429688 182.425781 99.765625 121.808594 154.695313 121.648438 C 182.050781 119.378906 218.453125 131.707031 257.382813 146.496094 C 280.136719 153.882813 300.09375 151.6875 317.257813 139.910156 C 336.820313 127.4375 327.738281 97.398438 300.792969 106.378906 C 300.789063 106.441406 300.785156 106.507813 300.785156 106.570313 C 296.78125 108.214844 292.777344 109.859375 288.777344 111.503906 C 286.421875 112.3125 286.179688 111.664063 288.046875 109.550781 C 292.550781 103.898438 297.054688 98.253906 301.558594 92.597656 C 304.042969 88.042969 301.222656 83.898438 294.863281 86.253906 C 287.679688 88.613281 280.496094 90.972656 273.3125 93.332031 C 275.019531 90.644531 276.722656 87.964844 278.425781 85.28125 C 271.691406 87.679688 264.953125 90.082031 258.21875 92.476563 C 259.554688 93.492188 260.894531 94.507813 262.234375 95.523438 C 259.828125 99.074219 257.417969 102.621094 255.011719 106.167969 C 249.0625 109.742188 242.703125 112.089844 235.9375 113.214844 C 230.210938 113.410156 223.28125 105.53125 233.5625 98.292969 C 234.070313 97.9375 234.617188 97.585938 235.207031 97.230469 C 249.859375 89.691406 246.613281 102.902344 234.234375 107.355469 C 240.808594 107.210938 246.691406 106.285156 250.667969 103.210938 C 263.035156 95.457031 253.074219 82.464844 232.40625 89.792969 C 222.792969 92.898438 217.511719 99.628906 218.34375 106.679688 C 216.292969 107.894531 214.238281 109.113281 212.1875 110.332031 C 207.046875 111.761719 205.617188 109.824219 207.890625 104.515625 C 210.828125 99.464844 213.765625 94.410156 216.699219 89.359375 C 218.25 89.796875 219.769531 90.304688 221.246094 90.855469 C 221.566406 90.4375 221.890625 90.019531 222.210938 89.605469 Z M 93.210938 62.671875 C 95.394531 62.671875 97.578125 62.671875 99.761719 62.671875 C 103.601563 54.988281 107.445313 47.304688 111.285156 39.621094 C 80.363281 33.871094 38.128906 45.996094 36.105469 77.339844 C 37.242188 124.316406 96.792969 122.046875 91.378906 87.035156 C 94.257813 87.382813 97.140625 87.730469 100.023438 88.085938 C 94.695313 98.996094 89.371094 109.910156 84.042969 120.824219 C 79.066406 127.742188 66.753906 130.898438 58.109375 123.445313 C 53.570313 117.945313 49.027344 112.441406 44.488281 106.941406 C 26.28125 83.171875 0 103.382813 5.457031 122.136719 C 7.617188 138.769531 28.183594 143.308594 43.964844 135.234375 C 15.761719 136.890625 9.300781 100.917969 34.796875 105.894531 C 40.820313 112.53125 46.847656 119.167969 52.871094 125.800781 C 58.035156 133.871094 80.210938 140.402344 90.59375 123.710938 C 98.015625 109.734375 105.4375 95.765625 112.859375 81.796875 C 99.671875 81.445313 86.488281 81.09375 73.304688 80.746094 C 73.128906 82.054688 72.953125 83.367188 72.78125 84.675781 C 76.273438 85.285156 79.765625 85.898438 83.257813 86.507813 C 86.621094 102.839844 58.332031 106.59375 50.511719 87.558594 C 39.5 65.476563 69.820313 41.617188 101.59375 44.859375 C 98.800781 50.796875 96.007813 56.734375 93.210938 62.671875 Z M 155.109375 84.257813 C 126.550781 80.191406 109.707031 89.195313 106.117188 100.339844 C 104.175781 115.878906 124.011719 120.046875 134.085938 104.097656 C 135.304688 103.46875 135.773438 103.84375 135.492188 105.222656 C 129.957031 109.835938 130.675781 115.941406 138.214844 114.253906 C 142.484375 112.667969 146.238281 109.1875 149.757813 104.847656 C 147.789063 105.757813 145.816406 106.667969 143.847656 107.574219 C 140.75 108.332031 140.15625 107.324219 142.0625 104.566406 C 149.171875 95.984375 142.210938 94.714844 136.054688 97.707031 C 136.210938 95.476563 136.371094 93.253906 136.527344 91.027344 C 134.273438 90.699219 132.335938 90.605469 131.082031 91.027344 C 133.414063 109.855469 114.324219 110.113281 118.878906 97.332031 C 129.121094 83.910156 141.914063 83.980469 154.921875 85.195313 C 154.984375 84.882813 155.046875 84.570313 155.109375 84.257813 Z M 200.183594 100.414063 C 200.367188 97.851563 200.050781 95.363281 199.699219 92.878906 C 198.929688 92.976563 198.449219 92.878906 197.679688 92.976563 C 200.503906 111.628906 170.601563 113.855469 182.484375 97.023438 C 189.777344 89.074219 198.875 86.90625 207.777344 87.671875 C 205.246094 91.921875 202.714844 96.167969 200.183594 100.414063 Z M 200.183594 100.414063 "/>
<path style=" stroke:none;fill-rule:evenodd;fill:rgb(255,255,255);fill-opacity:1;" d="M 143.636719 138.539063 C 148.152344 138.539063 151.835938 142.222656 151.835938 146.738281 C 151.835938 151.253906 148.152344 154.9375 143.636719 154.9375 C 139.121094 154.9375 135.4375 151.253906 135.4375 146.738281 C 135.4375 142.222656 139.121094 138.539063 143.636719 138.539063 Z M 143.636719 140.234375 C 147.21875 140.234375 150.140625 143.15625 150.140625 146.738281 C 150.140625 150.320313 147.21875 153.242188 143.636719 153.242188 C 140.054688 153.242188 137.132813 150.320313 137.132813 146.738281 C 137.132813 143.15625 140.054688 140.234375 143.636719 140.234375 Z M 140.203125 151.148438 L 140.203125 142.332031 L 143.867188 142.332031 C 144.785156 142.332031 145.453125 142.40625 145.871094 142.566406 C 146.289063 142.722656 146.621094 143.003906 146.871094 143.410156 C 147.125 143.816406 147.25 144.277344 147.25 144.800781 C 147.25 145.464844 147.058594 146.011719 146.679688 146.441406 C 146.300781 146.871094 145.730469 147.144531 144.976563 147.253906 C 145.351563 147.480469 145.660156 147.726563 145.90625 147.996094 C 146.152344 148.265625 146.480469 148.742188 146.894531 149.429688 L 147.949219 151.148438 L 145.867188 151.148438 L 144.613281 149.230469 C 144.164063 148.542969 143.859375 148.113281 143.695313 147.933594 C 143.53125 147.753906 143.355469 147.632813 143.171875 147.566406 C 142.988281 147.503906 142.695313 147.464844 142.296875 147.464844 L 141.945313 147.464844 L 141.945313 151.148438 Z M 141.945313 146.058594 L 143.230469 146.058594 C 144.0625 146.058594 144.585938 146.023438 144.792969 145.949219 C 145 145.878906 145.164063 145.753906 145.28125 145.582031 C 145.398438 145.398438 145.457031 145.179688 145.457031 144.914063 C 145.457031 144.617188 145.378906 144.378906 145.226563 144.195313 C 145.070313 144.015625 144.851563 143.898438 144.570313 143.847656 C 144.429688 143.835938 144.003906 143.820313 143.300781 143.820313 L 141.945313 143.820313 Z M 141.945313 146.058594 "/>
<path style=" stroke:none;fill-rule:evenodd;fill:rgb(255,255,255);fill-opacity:1;" d="M 141.523438 27.609375 C 139.554688 -0.0351563 179.527344 5.03125 162.480469 34.097656 C 188.855469 24.144531 192.652344 51.589844 174.121094 55.21875 C 184.601563 72.910156 163.535156 80.28125 155.164063 70.355469 C 149.339844 89.539063 129.382813 83.9375 131.210938 67.195313 C 108.503906 78.035156 98.746094 49.148438 124.558594 44.078125 C 102.4375 29.90625 123.890625 8.394531 141.523438 27.609375 Z M 141.523438 27.609375 "/>
<path style=" stroke:none;fill-rule:evenodd;fill:rgb(255,255,255);fill-opacity:1;" d="M 147.429688 38.453125 C 151.242188 38.453125 154.355469 41.566406 154.355469 45.378906 C 154.355469 49.191406 151.242188 52.304688 147.429688 52.304688 C 143.617188 52.304688 140.503906 49.191406 140.503906 45.378906 C 140.503906 41.566406 143.617188 38.453125 147.429688 38.453125 Z M 147.429688 40.222656 C 150.265625 40.222656 152.582031 42.539063 152.582031 45.378906 C 152.582031 48.214844 150.265625 50.53125 147.429688 50.53125 C 144.589844 50.53125 142.273438 48.214844 142.273438 45.378906 C 142.273438 42.539063 144.589844 40.222656 147.429688 40.222656 Z M 139.886719 35.558594 C 140.035156 36.449219 139.144531 37.171875 138.574219 36.671875 C 136.324219 33.296875 133.726563 30.175781 129.453125 28.289063 C 124.933594 26.671875 121.808594 31.402344 124.5625 34.398438 C 128 37.371094 131.546875 39.195313 135.25 39.34375 C 137 39.765625 136.828125 40.964844 135 41.421875 C 130.65625 39.898438 123.441406 37.894531 121.390625 32.578125 C 120.535156 26.28125 126.425781 23.398438 132.375 27.734375 C 136.03125 30.011719 138.121094 32.742188 139.886719 35.558594 Z M 131.59375 48.632813 C 132.441406 48.949219 132.617188 50.085938 131.898438 50.328125 C 127.847656 50.589844 123.851563 51.269531 120.074219 54.023438 C 116.40625 57.121094 118.9375 62.199219 122.90625 61.3125 C 127.203125 59.828125 130.5625 57.675781 132.542969 54.546875 C 133.785156 53.242188 134.734375 53.988281 134.210938 55.796875 C 130.722656 58.796875 125.371094 64.039063 119.742188 63.148438 C 113.863281 60.730469 114.320313 54.191406 121.058594 51.214844 C 124.859375 49.195313 128.269531 48.753906 131.59375 48.632813 Z M 140.980469 56.808594 C 141.714844 56.28125 142.753906 56.765625 142.558594 57.496094 C 140.523438 61.007813 138.867188 64.714844 139.058594 69.382813 C 139.597656 74.148438 145.222656 74.871094 146.695313 71.078125 C 147.851563 66.679688 147.925781 62.691406 146.425781 59.304688 C 146.03125 57.546875 147.175781 57.171875 148.390625 58.613281 C 148.949219 63.183594 150.328125 70.546875 146.460938 74.726563 C 141.183594 78.273438 136 74.253906 137.269531 67.003906 C 137.703125 62.71875 139.230469 59.640625 140.980469 56.808594 Z M 153.320313 56.839844 C 153.328125 55.9375 154.328125 55.378906 154.804688 55.972656 C 156.4375 59.6875 158.453125 63.214844 162.335938 65.808594 C 166.503906 68.183594 170.40625 64.070313 168.210938 60.644531 C 165.339844 57.117188 162.167969 54.710938 158.542969 53.921875 C 156.894531 53.199219 157.265625 52.050781 159.148438 51.921875 C 163.164063 54.171875 169.921875 57.394531 171.019531 62.984375 C 170.773438 69.339844 164.46875 71.152344 159.359375 65.851563 C 156.15625 62.972656 154.570313 59.921875 153.320313 56.839844 Z M 160.589844 47.703125 C 159.910156 47.109375 160.140625 45.988281 160.902344 46.015625 C 164.78125 47.214844 168.761719 47.984375 173.269531 46.746094 C 177.792969 45.144531 177.226563 39.503906 173.199219 38.925781 C 168.652344 38.789063 164.753906 39.613281 161.792969 41.839844 C 160.167969 42.621094 159.542969 41.589844 160.675781 40.078125 C 165 38.507813 171.859375 35.503906 176.804688 38.328125 C 181.449219 42.671875 178.707031 48.628906 171.355469 49.023438 C 167.082031 49.566406 163.738281 48.773438 160.589844 47.703125 Z M 154.632813 33.347656 C 153.828125 33.757813 152.871094 33.121094 153.183594 32.429688 C 155.738281 29.277344 157.941406 25.871094 158.476563 21.226563 C 158.679688 16.433594 153.234375 14.851563 151.191406 18.378906 C 149.371094 22.539063 148.683594 26.464844 149.640625 30.046875 C 149.757813 31.84375 148.566406 32.035156 147.589844 30.421875 C 147.746094 25.824219 147.519531 18.339844 151.984375 14.800781 C 157.746094 12.117188 162.25 16.886719 159.875 23.851563 C 158.785156 28.019531 156.800781 30.828125 154.632813 33.347656 Z M 154.632813 33.347656 "/>
</g>
</svg>
